<svg xmlns="http://www.w3.org/2000/svg" viewBox="19 11 66 80">
  <path d="M24 16 L35 16 L35 84 L24 84 Z" fill="#FFC700"></path>
  <path d="M35 47 L62 16 L75 16 L43 53 Z" fill="#FFC700"></path>
  <g transform="translate(47 60.5) rotate(-47)">
    <path d="M-2.4 -21 L2.4 -21 L2.2 -1 L-2.2 -1 Z" fill="#FFC700"></path>
    <g stroke="#C99A2E" stroke-width="1.05" stroke-linecap="round" opacity="0.8">
      <line x1="-2.1" y1="-16" x2="2.1" y2="-16.3"></line>
      <line x1="-2.1" y1="-11.5" x2="2.1" y2="-11.8"></line>
      <line x1="-2.1" y1="-7" x2="2.1" y2="-7.3"></line>
    </g>
    <path d="M0 -1.2 L9.5 -1.4 Q13.6 -1.5 14.6 1.6 Q11 0.7 9.5 1.2 Q5 2 0 1.9 Q-5 2 -9.5 1.2 Q-11 0.7 -14.6 1.6 Q-13.6 -1.5 -9.5 -1.4 Z" fill="#FFC700"></path>
    <path d="M-3.4 4.5 L3.4 4.5 L3.05 17 L2.45 30 L1.5 41 L0 49 L-1.5 41 L-2.45 30 L-3.05 17 Z" fill="#FFC700"></path>
    <path d="M0 9 L0 41" stroke="#C99A2E" stroke-width="1.05" stroke-linecap="round" opacity="0.5"></path>
  </g></svg>